<svg width="300" height="300" viewBox="0 0 300 300" fill="none" xmlns="http://www.w3.org/2000/svg">
<rect width="300" height="300" rx="150" fill="white"/>
<path d="M252.9 151.948C252.9 144.31 252.215 136.967 250.942 129.917H149.5V171.629H207.467C204.921 185.044 197.283 196.402 185.827 204.04V231.162H220.783C241.15 212.362 252.9 184.75 252.9 151.948Z" fill="#4285F4"/>
<path d="M149.5 257.208C178.581 257.208 202.962 247.612 220.783 231.162L185.827 204.04C176.231 210.502 163.992 214.419 149.5 214.419C121.496 214.419 97.702 195.521 89.1832 170.062H53.3457V197.871C71.0686 233.023 107.396 257.208 149.5 257.208Z" fill="#34A853"/>
<path d="M89.1837 169.965C87.0295 163.502 85.7566 156.648 85.7566 149.5C85.7566 142.352 87.0295 135.498 89.1837 129.035V101.227H53.3462C46.0024 115.719 41.792 132.071 41.792 149.5C41.792 166.929 46.0024 183.281 53.3462 197.773L81.2524 176.035L89.1837 169.965Z" fill="#FBBC05"/>
<path d="M149.5 84.6791C165.362 84.6791 179.462 90.1625 190.723 100.737L221.567 69.8937C202.864 52.4645 178.581 41.7916 149.5 41.7916C107.396 41.7916 71.0686 65.977 53.3457 101.227L89.1832 129.035C97.702 103.577 121.496 84.6791 149.5 84.6791Z" fill="#EA4335"/>
</svg>
